<?xml version="1.0" encoding="UTF-8"?>
<svg id="Layer_1" xmlns="http://www.w3.org/2000/svg" xmlns:xlink="http://www.w3.org/1999/xlink" viewBox="0 0 300 300">
  <defs>
    <style>
      .cls-1 {
        fill: url(#linear-gradient-9);
        fill-rule: evenodd;
      }

      .cls-2 {
        fill: url(#linear-gradient-8);
      }

      .cls-3 {
        fill: url(#linear-gradient-7);
      }

      .cls-4 {
        fill: url(#linear-gradient-5);
      }

      .cls-5 {
        fill: url(#linear-gradient-6);
      }

      .cls-6 {
        fill: url(#linear-gradient-4);
      }

      .cls-7 {
        fill: url(#linear-gradient-3);
      }

      .cls-8 {
        fill: url(#linear-gradient-2);
      }

      .cls-9 {
        fill: url(#linear-gradient);
      }

      .cls-10 {
        fill: #676766;
      }

      .cls-11 {
        fill: #fff;
      }
    </style>
    <linearGradient id="linear-gradient" x1="0" y1="150" x2="300" y2="150" gradientUnits="userSpaceOnUse">
      <stop offset="0" stop-color="#674220"/>
      <stop offset=".08" stop-color="#a77c2f"/>
      <stop offset=".32" stop-color="#6a4421"/>
      <stop offset=".44" stop-color="#ae7936"/>
      <stop offset=".55" stop-color="#eabe69"/>
      <stop offset=".58" stop-color="#ebc16b"/>
      <stop offset=".61" stop-color="#eeca73"/>
      <stop offset=".63" stop-color="#f3db7f"/>
      <stop offset=".64" stop-color="#f8e88a"/>
      <stop offset=".78" stop-color="#8d5924"/>
      <stop offset="1" stop-color="#dfa54d"/>
    </linearGradient>
    <linearGradient id="linear-gradient-2" x1="98.2" y1="95.57" x2="131.22" y2="95.57" xlink:href="#linear-gradient"/>
    <linearGradient id="linear-gradient-3" x1="138.1" y1="68.74" x2="160.35" y2="68.74" xlink:href="#linear-gradient"/>
    <linearGradient id="linear-gradient-4" x1="155.25" y1="68.77" x2="201.52" y2="68.77" xlink:href="#linear-gradient"/>
    <linearGradient id="linear-gradient-5" x1="196.74" y1="95.35" x2="223.96" y2="95.35" xlink:href="#linear-gradient"/>
    <linearGradient id="linear-gradient-6" x1="228.99" y1="95" x2="267.17" y2="95" xlink:href="#linear-gradient"/>
    <linearGradient id="linear-gradient-7" x1="54.97" y1="66.55" x2="85.54" y2="66.55" xlink:href="#linear-gradient"/>
    <linearGradient id="linear-gradient-8" x1="-113.3" y1="1258.6" x2="-149.66" y2="1320.3" gradientTransform="translate(937.13 -898.72) rotate(35.95)" xlink:href="#linear-gradient"/>
    <linearGradient id="linear-gradient-9" x1="33.8" y1="79.67" x2="99.59" y2="79.67" xlink:href="#linear-gradient"/>
  </defs>
  <rect class="cls-9" width="300" height="300"/>
  <g>
    <rect class="cls-11" x="14.42" y="162.32" width="271.15" height="122.61"/>
    <g>
      <path class="cls-10" d="M78.9,236.63h26.77l10.9-52.14,6.69-3.31-18.1,85.85h-3.95c-.98-2.93-2.26-5.8-3.86-8.6-1.59-2.8-3.47-5.53-5.64-8.19-2.17-2.66-4.41-5-6.72-7.04-2.32-2.04-4.62-3.61-6.92-4.72l-.19.32c-2.42,5.57-5.36,10.53-8.83,14.88-3.46,4.36-7.02,7.66-10.68,9.91-2.13,1.32-4.56,2.47-7.3,3.44-2.74.98-5.61,1.72-8.6,2.23-3,.51-6.02.76-9.08.76-2.08,0-4.33-.21-6.76-.64l2.04-5.03c4.89,1.57,9.2,2.36,12.94,2.36,4.67,0,9.14-1.21,13.38-3.63,4.25-2.42,7.75-5.71,10.52-9.88,3.87-5.82,7.42-13.75,10.64-23.77.55-1.66,1.38-4.46,2.49-8.41,1.1-3.95,2.11-7.75,3.03-11.41.91-3.65,1.63-6.69,2.14-9.11l2.23-11.35.19-1.21,7.2-3.57c-.43,3.4-1.17,7.42-2.23,12.05-1.06,4.63-2.28,9.41-3.66,14.34-1.38,4.93-2.84,9.74-4.37,14.44-1.53,4.7-2.91,8.4-4.14,11.12l-.13.32ZM105.16,238.79h-21.8c2.97,2.29,6.18,5.32,9.62,9.08,3.44,3.76,6.16,7.23,8.16,10.42l4.02-19.5Z"/>
      <path class="cls-10" d="M146.08,257.15l1.15.96c-2.64,3.48-5.21,6-7.71,7.55-2.51,1.55-5.21,2.33-8.09,2.33-3.44,0-6.2-1.15-8.29-3.44-2.08-2.29-3.12-5.33-3.12-9.11s1.01-7.7,3.03-11.63,4.55-7.18,7.58-9.75c3.04-2.57,6.04-3.86,9.02-3.86,1.74,0,3.18.51,4.3,1.53s1.69,2.34,1.69,3.95c0,3.27-1.78,6.54-5.35,9.82-3.57,3.27-8.44,6.05-14.6,8.35-.04.34-.06.72-.06,1.15,0,2.93.81,5.32,2.42,7.17,1.61,1.85,3.7,2.77,6.25,2.77,2,0,3.93-.63,5.8-1.88,1.87-1.25,3.87-3.22,5.99-5.9ZM125.68,252.31c4.59-2.04,8.12-4.31,10.58-6.82,1.66-1.7,3-3.53,4.02-5.48,1.02-1.95,1.53-3.72,1.53-5.29,0-2-.91-3-2.74-3-2.76,0-5.56,2.18-8.38,6.53-2.83,4.36-4.49,9.04-5,14.05Z"/>
      <path class="cls-10" d="M187.57,229.36l-5.99,23.33c-.64,2.55-.96,4.55-.96,5.99,0,1.28.28,2.38.83,3.31.55.93,1.23,1.4,2.04,1.4,1.23,0,3.27-1.51,6.12-4.53l.89.89-.7.83c-2.25,2.59-3.98,4.41-5.19,5.45-1.21,1.04-2.26,1.56-3.16,1.56-1.36,0-2.54-.71-3.54-2.14-1-1.42-1.5-3.07-1.5-4.94,0-1.36.51-4.44,1.53-9.24l.51-2.42c-1.57,3.66-3.68,7.16-6.31,10.52-4.42,5.61-8.65,8.41-12.68,8.41-2.42,0-4.33-.87-5.74-2.61-1.4-1.74-2.1-4.08-2.1-7.01,0-3.99,1.14-8.18,3.41-12.56,2.27-4.38,5.1-7.98,8.48-10.8,3.38-2.83,6.66-4.24,9.85-4.24,3.36,0,5.86,1.23,7.52,3.7l.7-2.42,5.99-2.49ZM180.24,237.52c-.51-1.61-1.37-2.88-2.58-3.79-1.21-.91-2.6-1.37-4.17-1.37-1.87,0-3.85.86-5.93,2.58-2.08,1.72-3.99,4.11-5.74,7.17-1.36,2.42-2.5,5.1-3.41,8.03-.91,2.93-1.37,5.35-1.37,7.27,0,2.17.41,3.87,1.24,5.1.83,1.23,2.01,1.85,3.54,1.85,1.95,0,3.99-.91,6.12-2.74,2.12-1.83,4.23-4.44,6.31-7.84,1.27-1.95,2.27-3.91,3-5.86.72-1.95,1.53-4.67,2.42-8.16l.57-2.23Z"/>
      <path class="cls-10" d="M217.98,177.22l-16.76,73.49-.57,2.49c-.55,2.34-.83,4.31-.83,5.93,0,1.32.24,2.39.73,3.22.49.83,1.09,1.24,1.82,1.24,1.32,0,3.42-1.57,6.31-4.72l1.02.89-.64.7c-2.42,2.85-4.21,4.77-5.35,5.77-1.15,1-2.21,1.5-3.19,1.5-1.27,0-2.39-.71-3.35-2.14-.96-1.42-1.43-3.05-1.43-4.88,0-1.27.28-3.29.83-6.05l14.72-74.19,6.69-3.25Z"/>
      <path class="cls-10" d="M225.05,232.99l-4.84,21.22c-.51,2.34-.77,3.99-.77,4.97,0,1.53.36,2.76,1.08,3.7.72.94,1.68,1.4,2.87,1.4s2.2-.33,3.16-.99c.96-.66,2.41-2.03,4.37-4.11l.76-.76.96.96c-2.51,3.06-4.6,5.22-6.28,6.47-1.68,1.25-3.33,1.88-4.94,1.88-2.04,0-3.66-.67-4.88-2.01s-1.82-3.09-1.82-5.26c0-1.61.32-3.95.96-7.01l4.14-20.46h-6.12l.45-2.17h6.12l3.57-17.21,6.12-2.42-4.46,19.63h10.33l-.45,2.17h-10.33Z"/>
      <path class="cls-10" d="M236.01,267.67l16.95-87.19,6.69-3.25-17.66,77.63c.17-.3.26-.49.26-.57l1.47-3.31c2.51-5.69,5.65-10.62,9.43-14.79,3.57-3.87,6.86-5.8,9.88-5.8,1.61,0,2.91.52,3.89,1.56.98,1.04,1.47,2.43,1.47,4.17,0,.98-.23,2.36-.7,4.14l-.64,2.68-1.98,7.78-.57,2.49c-.64,2.55-.96,4.5-.96,5.86s.23,2.45.7,3.28c.47.83,1.08,1.24,1.85,1.24,1.32,0,3.42-1.57,6.31-4.72l.96.89-.57.7c-2.42,2.85-4.22,4.77-5.39,5.77-1.17,1-2.22,1.5-3.16,1.5-1.32,0-2.44-.7-3.38-2.1-.94-1.4-1.4-3.04-1.4-4.91,0-1.15.28-3.16.83-6.05l2.42-13.51c.38-2,.57-3.48.57-4.46,0-.89-.23-1.57-.7-2.04-.47-.47-1.11-.7-1.91-.7-1.57,0-3.38.92-5.42,2.77-2.04,1.85-4.09,4.41-6.15,7.68-2.06,3.27-3.86,6.77-5.39,10.48-1.53,3.72-2.68,7.53-3.44,11.44l-4.27,1.34Z"/>
    </g>
  </g>
  <g>
    <rect class="cls-11" x="14.42" y="15.07" width="271.15" height="132.42"/>
    <g>
      <path class="cls-8" d="M98.2,101.06c0-3.82,1.03-7.64,3.09-11.44,2.06-3.8,4.73-6.89,8-9.27,3.27-2.38,6.61-3.57,10.01-3.57,3.57,0,6.45,1.18,8.64,3.54,2.19,2.36,3.28,5.41,3.28,9.15,0,4.08-1.01,8.03-3.03,11.85-2.02,3.82-4.67,6.96-7.97,9.4-3.29,2.44-6.62,3.66-9.98,3.66-3.61,0-6.52-1.22-8.73-3.66-2.21-2.44-3.31-5.66-3.31-9.66ZM125.48,87.03c0-2.55-.63-4.65-1.88-6.31-1.25-1.66-2.86-2.49-4.81-2.49-1.79,0-3.5.57-5.13,1.72-1.64,1.15-3.13,2.83-4.49,5.03-1.53,2.55-2.79,5.52-3.79,8.92-1,3.4-1.5,6.42-1.5,9.05,0,3.15.62,5.57,1.85,7.27,1.23,1.7,3,2.55,5.29,2.55,3.7,0,6.95-2.57,9.75-7.71,1.44-2.63,2.59-5.59,3.44-8.86.85-3.27,1.27-6.33,1.27-9.18Z"/>
      <path class="cls-7" d="M160.35,23.49l-16.76,73.49-.57,2.49c-.55,2.34-.83,4.31-.83,5.93,0,1.32.24,2.39.73,3.22.49.83,1.09,1.24,1.82,1.24,1.32,0,3.42-1.57,6.31-4.72l1.02.89-.64.7c-2.42,2.85-4.21,4.77-5.35,5.77-1.15,1-2.21,1.5-3.19,1.5-1.27,0-2.39-.71-3.35-2.14-.96-1.42-1.43-3.05-1.43-4.88,0-1.27.28-3.29.83-6.05l14.72-74.19,6.69-3.25Z"/>
      <path class="cls-6" d="M201.52,23.49l-16.89,73.49c-.89,3.91-1.34,6.63-1.34,8.16,0,1.36.24,2.47.73,3.31.49.85,1.16,1.27,2.01,1.27,1.1,0,2.44-.83,4.02-2.49l1.85-1.85s.08-.09.13-.13c.04-.04.11-.08.19-.13l.96.89-.51.57c-1.61,1.79-2.44,2.7-2.49,2.74l-2.1,2.1c-1.06,1.06-1.84,1.73-2.33,2.01-.49.28-1.03.41-1.63.41-1.4,0-2.57-.72-3.51-2.17-.93-1.44-1.4-3.1-1.4-4.97,0-1.1.3-3.12.89-6.06l.7-3.63c-1.1,2.68-2.85,5.59-5.23,8.73-4.29,5.52-8.46,8.29-12.49,8.29-2.42,0-4.33-.88-5.74-2.64-1.4-1.76-2.1-4.15-2.1-7.17,0-4.21,1.11-8.47,3.31-12.78,2.21-4.31,5.02-7.87,8.44-10.68,3.42-2.8,6.83-4.21,10.23-4.21,2.51,0,4.84.74,7.01,2.23l10.39-52.07,6.88-3.25ZM183.67,82c-.38-1.15-1.17-2.07-2.36-2.77-1.19-.7-2.46-1.05-3.82-1.05-2,0-4.05.89-6.15,2.68-2.1,1.79-4.09,4.31-5.96,7.59-1.36,2.42-2.48,5.07-3.35,7.93-.87,2.87-1.31,5.47-1.31,7.81,0,2.04.44,3.68,1.31,4.91.87,1.23,2.07,1.85,3.6,1.85,1.78,0,3.71-.91,5.77-2.74,2.06-1.83,4.13-4.46,6.21-7.9,1.4-2.34,2.51-4.76,3.31-7.27.98-3.23,1.68-5.82,2.1-7.78l.64-3.25Z"/>
      <path class="cls-4" d="M222.81,103.41l1.15.96c-2.64,3.48-5.21,6-7.71,7.55-2.51,1.55-5.21,2.33-8.09,2.33-3.44,0-6.2-1.15-8.29-3.44-2.08-2.29-3.12-5.33-3.12-9.11s1.01-7.7,3.03-11.63,4.55-7.18,7.58-9.75c3.04-2.57,6.04-3.86,9.02-3.86,1.74,0,3.18.51,4.3,1.53s1.69,2.34,1.69,3.95c0,3.27-1.78,6.54-5.35,9.82-3.57,3.27-8.44,6.05-14.6,8.35-.04.34-.06.72-.06,1.15,0,2.93.81,5.32,2.42,7.17,1.61,1.85,3.7,2.77,6.25,2.77,2,0,3.93-.63,5.8-1.88,1.87-1.25,3.87-3.22,5.99-5.9ZM202.41,98.57c4.59-2.04,8.12-4.31,10.58-6.82,1.66-1.7,3-3.53,4.02-5.48,1.02-1.95,1.53-3.72,1.53-5.29,0-2-.91-3-2.74-3-2.76,0-5.56,2.18-8.38,6.53-2.83,4.36-4.49,9.04-5,14.05Z"/>
      <path class="cls-5" d="M228.99,113.93l6.76-35.31,6.05-2.61-5.48,23.39c3.53-7.44,7.03-13.09,10.52-16.95,3.48-3.87,6.82-5.8,10.01-5.8,1.57,0,2.85.52,3.82,1.56.98,1.04,1.47,2.43,1.47,4.17,0,.98-.23,2.36-.7,4.14l-.64,2.68-1.91,7.78-.64,2.49c-.64,2.55-.96,4.5-.96,5.86s.23,2.45.7,3.28c.47.83,1.08,1.24,1.85,1.24,1.32,0,3.42-1.57,6.31-4.72l1.02.89-.64.7c-2.42,2.85-4.21,4.77-5.35,5.77-1.15,1-2.21,1.5-3.19,1.5-1.32,0-2.43-.67-3.35-2.01-.91-1.34-1.37-3.01-1.37-5,0-1.36.26-3.38.77-6.05l2.49-13.51c.34-2.12.51-3.61.51-4.46,0-.89-.23-1.57-.7-2.04-.47-.47-1.11-.7-1.91-.7-2.93,0-6.54,3.15-10.84,9.43-2.08,3.02-3.8,6-5.16,8.95-1.36,2.95-2.89,7.04-4.59,12.27l-.57,1.72-4.27,1.34Z"/>
      <g>
        <path class="cls-3" d="M62.74,86.37c2.5-.98,3.32-4.5,1.15-7.13-2.18-2.64-6-3.49-7.39-4.34-1.63-1-1.92-2.57-1.04-3.73.7-.92,2.52-2.84,3.23-3.85.82-1.17.28-2.27.88-3.14.38-.55,1.08-.59,1.79-.41-.49-.66-.68-1.36-.08-2.09.83-1,2.84-1.5,3.54-2.48,1.19-1.64-.15-3.57.93-4.75,1.12-1.22,5,.52,8.69.41,3.86-.11,5-6.04,11.1-8.3-4.04,3.2-6.23,8.37-6.62,15.75-.18,3.51.42,9.81-.72,13.9-1.64,5.89-6.91,11.37-15.45,10.16Z"/>
        <path class="cls-2" d="M62.74,86.37c7.73-1.57,11.21-9.3,12.16-18.49.91-8.81,4.21-18.61,10.64-21.32-4.04,3.2-6.23,8.37-6.62,15.75-.18,3.51.42,9.81-.72,13.9-1.64,5.89-6.91,11.37-15.45,10.16Z"/>
        <path class="cls-1" d="M93.28,72.35h-.12c-.07.08-.16.1-.23.1l-.35.29-.56.68c-.29.38-.48.67-.55.86l-.56.96c-.65,1.29-1.16,2.69-1.56,4.23-.55,1.48-1.02,2.96-1.43,4.46-.39,1.5-.83,3-1.3,4.48l-1.43,4.42-.72,2.29-.59,2.21-3.09,9.04-1.77,4.53-.96,2.2-1.09,2.21c-.36.7-.72,1.42-1.07,2.15-.36.73-.72,1.46-1.08,2.17-.8,1.55-1.67,2.95-2.65,4.23-.52.71-1.04,1.39-1.56,2.07-.52.67-1.08,1.32-1.69,1.96l-1.8,1.92-2.07,1.84c-1.52,1.28-3.1,2.26-4.73,2.97l-1.42.58-1.53.39c-.96.19-1.98.29-3.11.29-.47,0-.73-.2-.75-.57-.02-.39.21-.58.69-.58s.93-.04,1.38-.1c.43-.06.83-.16,1.23-.29l1.17-.48,1.17-.57c1.46-.9,2.69-1.95,3.66-3.17l1.32-1.92c.52-.63.93-1.29,1.22-1.92l1.08-2.11.96-2.12,1.8-4.22,1.79-4.33.73-2.21c.13-.37.27-.75.41-1.1.13-.36.28-.72.42-1.12l1.54-4.41,2.97-8.94,1.68-4.41c.13-.51.26-.9.41-1.16l-3.41,5.48c-.67.96-1.34,1.91-1.99,2.84-.67.92-1.42,1.83-2.25,2.74-13.53,15.76-32.95,10.19-37.04-8.36l-.33-1.74c0-.31-.05-.61-.11-.86-.04-.26-.09-.55-.1-.87-.03-.57-.07-1.16-.11-1.73-.02-.58-.02-1.14.03-1.72.01-1.15.05-2.31.1-3.47.46-9.62,4.64-20.95,9.34-29.2,1.24-2.05,2.52-4.01,3.87-5.91,1.33-1.89,2.79-3.77,4.36-5.62.81-.95,1.62-1.85,2.44-2.7.57.67,1.15,1.33,1.69,1.98.98,1.14,1.9,2.25,2.76,3.36.83,1.11,1.64,2.22,2.43,3.31-1.26,1.6-2.44,3.21-3.56,4.84-1.14,1.66-2.18,3.35-3.09,5.09-1,1.75-1.91,3.51-2.76,5.28-.83,1.77-1.6,3.59-2.3,5.45l-.47,1.39-.27.71-.2.69-.81,2.79c-.56,1.8-.98,3.69-1.32,5.67-.34,1.8-.55,3.68-.65,5.66l-.07,2.79.09,1.48c.02.23.03.45.05.65,0,.2.05.45.14.75.13.92.27,1.86.43,2.78.16.92.45,1.83.86,2.7.35.88.75,1.72,1.22,2.53,4.25,7.19,15.92,8.8,22.03,1.49.84-.89,1.6-1.79,2.31-2.68.7-.9,1.39-1.79,2.06-2.68l3.64-5.78,3.26-5.85c.29-.52.57-1,.81-1.5.26-.48.56-.97.93-1.49,0-.06.03-.13.12-.19l.86-1.53.65-1.25c0-.05.03-.13.11-.19,0,0,.07-.13.22-.39l.78-1.06c.21-.38.45-.75.71-1.1.26-.35.55-.68.85-1,.38-.33.74-.65,1.08-.97.34-.31.7-.63,1.08-.96l1.52-.86c.46-.13.77-.2.94-.2.16-.05.36-.09.59-.09h.49c.72.12,1.01.45.88.96.03.45-.2.68-.68.68l-.11.08ZM53.07,107.11c-.14-.06-.29-.11-.43-.17-3.32-1.4-6.04-3.71-7.76-6.61-.54-.94-1.03-1.91-1.41-2.9-.51-1.1-.87-2.24-1.08-3.4-.14-.89-.28-1.79-.4-2.68-.12-.4-.19-.79-.2-1.2,0-.22-.03-.44-.04-.65l-.08-1.59.06-2.96.02-.04c.1-2.02.33-4.02.69-6,.33-2.04.79-4.05,1.38-5.98l.81-2.75.22-.85.33-.77.45-1.36.02-.05c.72-1.92,1.51-3.83,2.4-5.69.88-1.83,1.82-3.64,2.83-5.41.96-1.85,2.07-3.64,3.25-5.36.75-1.08,1.51-2.15,2.31-3.2-.34-.48-.69-.94-1.04-1.4-.45-.58-.92-1.17-1.4-1.75-1.3,1.57-2.52,3.17-3.7,4.82-1.31,1.86-2.55,3.77-3.73,5.7-4.53,8-8.5,18.73-8.94,27.87-.06,1.12-.09,2.24-.1,3.37v.1l-.02.09c-.02.44-.05.89,0,1.32.03.57.07,1.16.1,1.73,0,.13.02.28.05.42.09.36.13.72.15,1.1l.29,1.51c1.3,5.85,4.97,12.4,11.92,14.27,1.04.28,2.07.44,3.08.46h0ZM70.26,30.51l.41.49c.48.57.97,1.12,1.45,1.68.18-.12.37-.23.56-.33.99-.58,2.01-1.11,3.04-1.6,1.11-.55,2.27-1.01,3.47-1.4,2.42-.85,4.98-1.26,7.62-1.26h.22l.2.02c.56.06,1.13.11,1.69.19.78.09,1.56.26,2.31.51.05.01.1.03.16.04-5.36-3.02-11.45-2.44-16.9-.26-1.2.48-2.35,1-3.48,1.57l-.06.04-.07.03c-.21.1-.43.19-.62.29h0ZM64.99,29.61c.19-.13.38-.26.56-.38,1.08-.71,2.24-1.34,3.5-1.92,1.24-.65,2.51-1.23,3.8-1.73,7.24-2.87,15.06-3.1,21.71,1.35,6.62,5.44,5.67,13.57,3.05,19.98-.69,1.99-1.73,4-3.13,6.05-2.35,3.56-7.08,6.55-5.49,4.85,1.58-1.69,3-3.49,4.24-5.43.59-.95,1.12-1.92,1.59-2.87.46-.97.87-1.99,1.2-3.08,1.75-5.24,2.46-12.2-5.85-14.54-.51-.17-1.02-.29-1.53-.34-.52-.06-1.07-.12-1.64-.18-2.25,0-4.38.34-6.36,1.04-1.07.35-2.08.75-3.03,1.23-.96.46-1.89.95-2.81,1.47-.99.58-1.9,1.18-2.73,1.79-.19.13-.37.28-.56.41-.25-.29-.48-.58-.73-.88-.98-1.17-1.97-2.32-2.98-3.49l-2.81-3.31h-.01Z"/>
      </g>
    </g>
  </g>
</svg>